<?xml version="1.0" encoding="UTF-8" standalone="no"?>

<svg
   xmlns:dc="http://purl.org/dc/elements/1.1/"
   xmlns:cc="http://creativecommons.org/ns#"
   xmlns:rdf="http://www.w3.org/1999/02/22-rdf-syntax-ns#"
   xmlns:svg="http://www.w3.org/2000/svg"
   xmlns="http://www.w3.org/2000/svg"
   xmlns:sodipodi="http://sodipodi.sourceforge.net/DTD/sodipodi-0.dtd"
   xmlns:inkscape="http://www.inkscape.org/namespaces/inkscape"
   width="54.186668mm"
   height="54.188705mm"
   viewBox="0 0 192.00001 192.00722"
   id="svg5194"
   version="1.1"
   inkscape:version="0.91 r13725"
   sodipodi:docname="flar-map-gray.svg">
  <defs
     id="defs5196">
<!-- Created with Inkscape (http://www.inkscape.org/) -->
    <clipPath
       id="clipPath3927">
      <path
         inkscape:connector-curvature="0"
         transform="matrix(0.89346,0,0,-0.90205,632.34,2313.7)"
         d="m 1486.1,1425.8 a 1043.75,1033.8495 0 1 1 -2087.5,0 1043.75,1033.8495 0 1 1 2087.5,0 z"
         style="fill:none;stroke:#ffffff;stroke-width:103.87999725"
         id="path3929" />
    </clipPath>
  </defs>
  <sodipodi:namedview
     id="base"
     pagecolor="#ffffff"
     bordercolor="#666666"
     borderopacity="1.0"
     inkscape:pageopacity="0.0"
     inkscape:pageshadow="2"
     inkscape:zoom="0.7"
     inkscape:cx="225.66028"
     inkscape:cy="93.183052"
     inkscape:document-units="px"
     inkscape:current-layer="layer1"
     showgrid="false"
     fit-margin-top="0"
     fit-margin-left="0"
     fit-margin-right="0"
     fit-margin-bottom="0"
     inkscape:window-width="1302"
     inkscape:window-height="736"
     inkscape:window-x="0"
     inkscape:window-y="0"
     inkscape:window-maximized="1" />
  <metadata
     id="metadata5199">
    <rdf:RDF>
      <cc:Work
         rdf:about="">
        <dc:format>image/svg+xml</dc:format>
        <dc:type
           rdf:resource="http://purl.org/dc/dcmitype/StillImage" />
        <dc:title></dc:title>
      </cc:Work>
    </rdf:RDF>
  </metadata>
  <g
     inkscape:label="Capa 1"
     inkscape:groupmode="layer"
     id="layer1"
     transform="translate(133.14286,-176.35859)">
    <g
       id="g4484"
       transform="matrix(0.70268484,0,0,0.70268484,-37.520363,137.86887)">
      <g
         clip-path="url(#clipPath3927)"
         id="g3869"
         transform="matrix(0.14650048,0,0,-0.14650048,-150.0011,341.93683)">
        <g
           id="g4401">
          <path
             inkscape:connector-curvature="0"
             id="path12"
             style="fill:#f3f4f4;fill-rule:evenodd"
             d="m 28.364,2026.8 2000,0 0,-2000 -2000,0 0,2000 z" />
          <path
             inkscape:connector-curvature="0"
             id="path14"
             style="fill:#e6e6e6;fill-rule:evenodd"
             d="m 478.36,746.75 210,0 0,-190 -210,0 0,190 z" />
          <path
             inkscape:connector-curvature="0"
             id="path16"
             style="fill:#7fc7ed;fill-rule:evenodd"
             d="m 1878.4,196.75 150,0 0,-170 -150,0 0,170 z" />
          <path
             inkscape:connector-curvature="0"
             id="path18"
             style="fill:#e6e6e6;fill-rule:evenodd"
             d="m 738.36,456.75 260,0 0,-209.67 -260,0 0,209.67 z" />
          <path
             inkscape:connector-curvature="0"
             id="path20"
             style="fill:#7fc7ed;fill-rule:evenodd"
             d="m 1538.4,2026.8 290,0 0,-220 -290,0 0,220 z" />
          <path
             inkscape:connector-curvature="0"
             id="path22"
             style="fill:#e6e6e6;fill-rule:evenodd"
             d="m 1168.4,1756.8 660,0 0,-810 -660,0 0,810 z" />
          <path
             inkscape:connector-curvature="0"
             id="path24"
             style="fill:#e6e6e6;fill-rule:evenodd"
             d="m 28.364,1756.8 140,0 0,-960 -140,0 0,960 z" />
          <path
             inkscape:connector-curvature="0"
             id="path26"
             style="fill:#83cdac;fill-rule:evenodd"
             d="m 478.36,196.75 210,0 0,-170 -210,0 0,170 z" />
          <path
             inkscape:connector-curvature="0"
             id="path28"
             style="fill:#ececec;fill-rule:evenodd"
             d="m 1118.4,1506.8 -950,0 0,20 950,0 0,-20 z" />
          <path
             inkscape:connector-curvature="0"
             id="path30"
             style="fill:#ececec;fill-rule:evenodd"
             d="m 738.36,996.75 -570,0 0,20 570,0 0,-20 z" />
          <path
             inkscape:connector-curvature="0"
             id="path32"
             style="fill:#ececec;fill-rule:evenodd"
             d="m 918.36,1906.8 -890,0 0,20 890,0 0,-20 z" />
          <path
             inkscape:connector-curvature="0"
             id="path34"
             style="fill:#ececec;fill-rule:evenodd"
             d="m 478.36,606.75 -450,0 0,20 450,0 0,-20 z" />
          <path
             inkscape:connector-curvature="0"
             id="path36"
             style="fill:#ececec;fill-rule:evenodd"
             d="m 2028.4,1586.8 -150,0 0,20 150,0 0,-20 z" />
          <path
             inkscape:connector-curvature="0"
             id="path38"
             style="fill:#ececec;fill-rule:evenodd"
             d="m 2028.4,1016.8 -150,0 0,20 150,0 0,-20 z" />
          <path
             inkscape:connector-curvature="0"
             id="path40"
             style="fill:#ececec;fill-rule:evenodd"
             d="m 2028.4,766.75 -150,0 0,20 150,0 0,-20 z" />
          <path
             inkscape:connector-curvature="0"
             id="path42"
             style="fill:#ececec;fill-rule:evenodd"
             d="m 738.36,346.75 -710,0 0,20 710,0 0,-20 z" />
          <path
             inkscape:connector-curvature="0"
             id="path44"
             style="fill:#ececec;fill-rule:evenodd"
             d="m 1828.4,656.75 -780,0 0,20 780,0 0,-20 z" />
          <path
             inkscape:connector-curvature="0"
             id="path46"
             style="fill:#ececec;fill-rule:evenodd"
             d="m 898.36,2026.8 20,0 0,-910 -20,0 0,910 z" />
          <path
             inkscape:connector-curvature="0"
             id="path48"
             style="fill:#ececec;fill-rule:evenodd"
             d="m 898.36,196.75 20,0 0,-170 -20,0 0,170 z" />
          <path
             inkscape:connector-curvature="0"
             id="path50"
             style="fill:#ececec;fill-rule:evenodd"
             d="m 1578.4,676.75 20,0 0,-430 -20,0 0,430 z" />
          <path
             inkscape:connector-curvature="0"
             id="path52"
             style="fill:#ffffff;fill-rule:evenodd"
             d="m 2028.4,1756.8 -2000,0 0,50 2000,0 0,-50 z" />
          <path
             inkscape:connector-curvature="0"
             id="path54"
             style="fill:#ffffff;fill-rule:evenodd"
             d="m 738.36,746.75 -710,0 0,50 710,0 0,-50 z" />
          <path
             inkscape:connector-curvature="0"
             id="path56"
             style="fill:#ffffff;fill-rule:evenodd"
             d="m 1878.4,896.75 -1147,0 0,50 1147,0 0,-50 z" />
          <path
             inkscape:connector-curvature="0"
             id="path58"
             style="fill:#ffffff;fill-rule:evenodd"
             d="m 2028.4,196.75 -2000,0 0,50 2000,0 0,-50 z" />
          <path
             inkscape:connector-curvature="0"
             id="path60"
             style="fill:#ffffff;fill-rule:evenodd"
             d="m 2028.4,1116.8 -1340,0 0,50 1340,0 0,-50 z" />
          <path
             inkscape:connector-curvature="0"
             id="path62"
             style="fill:#ffffff;fill-rule:evenodd"
             d="m 168.36,2026.8 50,0 0,-2000 -50,0 0,2000 z" />
          <path
             inkscape:connector-curvature="0"
             id="path64"
             style="fill:#ffffff;fill-rule:evenodd"
             d="m 1828.4,2026.8 50,0 0,-2000 -50,0 0,2000 z" />
          <path
             inkscape:connector-curvature="0"
             id="path66"
             style="fill:#ffffff;fill-rule:evenodd"
             d="m 688.36,2026.8 50,0 0,-2000 -50,0 0,2000 z" />
          <path
             inkscape:connector-curvature="0"
             id="path68"
             style="fill:#ffffff;fill-rule:evenodd"
             d="m 1118.4,1806.8 50,0 0,-910 -50,0 0,910 z" />
          <path
             inkscape:connector-curvature="0"
             id="path70"
             style="fill:#ffffff;fill-rule:evenodd"
             d="m 998.36,896.75 50,0 0,-700 -50,0 0,700 z" />
          <path
             inkscape:connector-curvature="0"
             id="path72"
             style="fill:#ffffff;fill-rule:evenodd"
             d="m 1488.4,2026.8 50,0 0,-910 -50,0 0,910 z" />
          <path
             inkscape:connector-curvature="0"
             id="path74"
             style="fill:#cccccc;fill-rule:evenodd"
             d="m 378.36,2026.8 100,0 0,-2000 -100,0 0,2000 z" />
          <path
             inkscape:connector-curvature="0"
             id="path76"
             style="fill:#cccccc;fill-rule:evenodd"
             d="m 1328.4,2026.8 100,0 0,-2000 -100,0 0,2000 z" />
          <path
             inkscape:connector-curvature="0"
             id="path78"
             style="fill:#cccccc;fill-rule:evenodd"
             d="m 2028.4,1286.8 -2000,0 0,100 2000,0 0,-100 z" />
          <path
             inkscape:connector-curvature="0"
             id="path80"
             style="fill:#cccccc;fill-rule:evenodd"
             d="m 2027.4,456.75 -1549,0 0,100 1549,0 0,-100 z" />
        </g>
      </g>
    </g>
    <g
       id="g4158"
       transform="translate(-905.04126,-4.6124297)">
      <path
         sodipodi:nodetypes="sscccccsscs"
         inkscape:connector-curvature="0"
         id="path4337-3"
         d="m 815.13689,266.80843 c -2.27028,2.42296 -3.6923,5.95251 -3.63708,9.27243 0.11536,6.93764 3.24244,9.5639 8.24333,19.11226 1.8014,4.20166 3.68154,8.64755 5.4697,16.01089 0.24851,1.08615 0.49087,2.09503 0.60298,2.18244 0.11202,0.0875 0.35447,-0.92499 0.60297,-2.01114 1.78817,-7.36335 3.66831,-11.8057 5.46972,-16.00736 5.00088,-9.54836 8.12799,-12.17464 8.24333,-19.11228 0.0553,-3.31991 -1.37033,-6.85299 -3.6406,-9.27594 -2.59341,-2.76781 -6.50509,-4.81621 -10.67542,-4.90185 -4.17034,-0.0857 -8.08552,1.96274 -10.67893,4.73055 z"
         style="display:inline;opacity:1;fill:#999999;fill-opacity:1;stroke:#333333;stroke-width:1.80444098;stroke-miterlimit:4;stroke-dasharray:none;stroke-opacity:1" />
      <circle
         r="5.4773808"
         cy="276.33875"
         cx="825.8158"
         id="path3049"
         style="display:inline;opacity:1;fill:#333333;fill-opacity:1;stroke-width:0" />
    </g>
    <g
       transform="translate(-835.96662,-56.33172)"
       id="g4162">
      <path
         style="display:inline;opacity:1;fill:#999999;fill-opacity:1;stroke:#333333;stroke-width:1.80444098;stroke-miterlimit:4;stroke-dasharray:none;stroke-opacity:1"
         d="m 815.13689,266.80843 c -2.27028,2.42296 -3.6923,5.95251 -3.63708,9.27243 0.11536,6.93764 3.24244,9.5639 8.24333,19.11226 1.8014,4.20166 3.68154,8.64755 5.4697,16.01089 0.24851,1.08615 0.49087,2.09503 0.60298,2.18244 0.11202,0.0875 0.35447,-0.92499 0.60297,-2.01114 1.78817,-7.36335 3.66831,-11.8057 5.46972,-16.00736 5.00088,-9.54836 8.12799,-12.17464 8.24333,-19.11228 0.0553,-3.31991 -1.37033,-6.85299 -3.6406,-9.27594 -2.59341,-2.76781 -6.50509,-4.81621 -10.67542,-4.90185 -4.17034,-0.0857 -8.08552,1.96274 -10.67893,4.73055 z"
         id="path4164"
         inkscape:connector-curvature="0"
         sodipodi:nodetypes="sscccccsscs" />
      <circle
         style="display:inline;opacity:1;fill:#333333;fill-opacity:1;stroke-width:0"
         id="circle4166"
         cx="825.8158"
         cy="276.33875"
         r="5.4773808" />
    </g>
    <g
       id="g4168"
       transform="translate(-816.16763,-40.06827)">
      <path
         sodipodi:nodetypes="sscccccsscs"
         inkscape:connector-curvature="0"
         id="path4170"
         d="m 815.13689,266.80843 c -2.27028,2.42296 -3.6923,5.95251 -3.63708,9.27243 0.11536,6.93764 3.24244,9.5639 8.24333,19.11226 1.8014,4.20166 3.68154,8.64755 5.4697,16.01089 0.24851,1.08615 0.49087,2.09503 0.60298,2.18244 0.11202,0.0875 0.35447,-0.92499 0.60297,-2.01114 1.78817,-7.36335 3.66831,-11.8057 5.46972,-16.00736 5.00088,-9.54836 8.12799,-12.17464 8.24333,-19.11228 0.0553,-3.31991 -1.37033,-6.85299 -3.6406,-9.27594 -2.59341,-2.76781 -6.50509,-4.81621 -10.67542,-4.90185 -4.17034,-0.0857 -8.08552,1.96274 -10.67893,4.73055 z"
         style="display:inline;opacity:1;fill:#999999;fill-opacity:1;stroke:#333333;stroke-width:1.80444098;stroke-miterlimit:4;stroke-dasharray:none;stroke-opacity:1" />
      <circle
         r="5.4773808"
         cy="276.33875"
         cx="825.8158"
         id="circle4172"
         style="display:inline;opacity:1;fill:#333333;fill-opacity:1;stroke-width:0" />
    </g>
  </g>
</svg>
