<?xml version="1.0" encoding="utf-8"?>
<!-- Generator: Adobe Illustrator 21.1.0, SVG Export Plug-In . SVG Version: 6.00 Build 0)  -->
<svg version="1.1" id="Layer_1" xmlns="http://www.w3.org/2000/svg" xmlns:xlink="http://www.w3.org/1999/xlink" x="0px" y="0px"
	 viewBox="0 0 223 213" style="enable-background:new 0 0 223 213;" xml:space="preserve">
<style type="text/css">
	.st0{fill:#048AB7;}
</style>
<g>
	<path class="st0" d="M187.7,80.7c-0.3-6-1-11.9-1.7-17.9c-1.4-12.2-6.8-22.3-16.5-29.9c-3.3-2.6-6.8-4.9-10.5-6.8
		c-15.7-8.4-33.6-11.6-51.3-9.5c-9.1,1.1-18,3.3-26.3,7.3C64.9,32,54.9,45.1,52.1,63.3c-1,6.4-1.5,12.8-3.2,19.1
		c-2.2,8.1-4.9,16-11.1,22c-0.7,0.7-1.2,1.6-1.7,2.5c-2.1,4.2,0.4,8.5,5.1,8.9c1.7,0.2,3.5,0.3,5.2,0.3c1.2,0,1.8,0.3,1.4,1.7
		c-0.4,1.6-0.8,3.3-1.1,4.9c-0.6,3.1-0.6,6,2.5,7.8c1,0.6,0.6,1.1,0.3,1.8c-1,2.4-0.7,4.7,1.1,6.6c1.1,1.2,1.4,2.6,1.5,4
		c0.1,1.3,0.1,2.6,0.1,3.8c0.1,7.9,6.2,13.3,13.7,14.4c3.9,0.6,7.7,0.2,11.6-0.3c2.9-0.3,5.6,0.6,7.4,3c3.6,4.9,7.1,9.6,8,15.8
		c0.7,4.9,0,9.8,1.5,14.6c0.6,2.1,1.8,2.8,4,2.7c22.2-0.2,44.5-0.2,66.7-0.2c1.7,0,2.7,0.1,2.5-1.8c-0.3-2.2-1.1-4.4-1.6-6.5
		c-1-4.1-1.9-8.3-2.4-12.5c-0.8-6-1.1-12.2-1-18.2c0.3-10.9,2.4-21.7,7.4-31.7c3.7-7.3,8.3-14.3,11.9-21.6
		C185.3,97.1,188,89.1,187.7,80.7z M161.3,120.7c-4.2,7.7-6.5,15.9-7.7,24.6c-0.7,5.3-1.2,10.6-1.2,16c0,2.2-0.1,4.4,0.4,6.6
		c0.5,5.9,1.1,11.8,2.4,17.5c0.3,1.3,0.2,1.9-1.5,1.9c-16.5,0-33,0-49.4,0c-1.3,0-1.8-0.4-1.8-1.6c0-2-0.1-4-0.1-6
		c0-7.4-2.3-13.9-7.6-19.3c-1.9-2-3.4-4.4-5.6-6.1c-4.2-3.4-9.2-3.8-14.3-3.2c-2.7,0.3-5.3,0.8-8,0.7c-3.3-0.2-5-2-5-5.3
		c0-4-0.1-7.9-2.1-11.5c-0.4-0.7,0-1.2,0.3-1.7c1.4-3.3,0.7-7.9-2.6-9.8c-0.6-0.4-0.7-0.8-0.5-1.5c0.4-2.1,0.9-4.2,0.9-6.3
		c0-4.8-1.1-6.5-5.6-8.4c-1.2-0.2-2.3-0.4-3.7-0.6c3.8-5.3,6.3-11,8.1-16.9c2.3-7.5,3.6-15.2,4.6-23.1c2-15.7,10.1-27.2,24.5-34.2
		c11-5.3,22.8-7.4,34.9-6.9c15.1,0.6,29.1,5,41.5,13.7c9,6.3,13.6,15.1,14.6,26c0.4,4.4,1,8.7,1.4,13
		C179.7,94,168.3,107.7,161.3,120.7z"/>
	<path class="st0" d="M167.7,68c0.9-2.7-1-5.7-2.6-7.7c-1.4-1.7-3-3.4-3.8-5.4c-0.5-1.2-0.7-2.7-1.8-3.4c-1-0.6-2.2-0.4-3.3-0.7
		c-1.1-0.4-1.8-1.2-2.4-2.2c-1-1.8-2.2-3.5-3.8-4.9c-0.4-0.3-0.8-0.6-1.3-0.6c-1.1,0-1.7,0.7-2.7,0.2c-0.9-0.4-1.5-1.4-2.1-2.1
		c-1.7-2.3-6-3.5-8.5-2.6c-1.3,0.5-2.4,0.9-3.3-0.2c-0.9-1-1-2.6-2-3.6c-0.9-0.9-2.4-1.2-3.6-0.7c-0.8,0.3-1.4,0.9-2.2,1.3
		c-2.1,1-4.1,0-5.8-1.2c-2-1.5-4.8-1.6-6.8-0.1c-2.9,2.1-6.5,2-9.8,2.6c-3,0.5-4.8,2.5-7,4.5c-2.3,2-5.2,3.4-8.1,4.5
		c-2.7,1-4.2,2.9-4.1,5.8c0.1,2.2-0.8,4.1-2.1,5.8c-0.9,1.2-1.8,2.4-2.8,3.5c-1.7,2-1.8,4.9-1.9,7.6c0,0.9-0.1,1.7-0.1,2.5
		c-0.4,3.6-0.7,7.2,0.8,10.5c0.6,1.3,1.2,2.3,2.6,2.9c1.6,0.7,2.9,1.8,3.5,3.5c1,3,1.7,3.5,4.8,2.8c2-0.5,3.8-0.2,5.7,0.7
		c2.4,1.1,4.2,3.1,6.3,4.7c1.4,1.1,2.7,1.1,4.2,0.1c4-2.8,4.8-3.5,8.5,0.4c2,2.1,4.5,2.1,6.6,0.1c0.8-0.7,1.8-1.1,2.8-1.4
		c2.6-0.7,5.2-0.3,7.8-0.4c1.3,0,1.7,0.7,1.3,1.9c-0.3,1.1-0.8,2.1-1.1,3.2c-0.6,1.9-0.3,2.3,1.7,2.2c0.7,0,1.3-0.2,2-0.4
		c1-0.2,2,0,2.4,1.1c1.7,4.4,5.3,6.7,9,9.2c1.4,0.9,2.5,0.8,3.5-0.4c0.9-1.1,1.8-2.2,2.5-3.4c2.7-4.1,6.6-6,11.4-6.1
		c2.5,0,2.9-0.6,2.8-3c-0.1-2.3-0.3-4.6,0.4-6.8c0.5-1.4,1.5-2.6,2.5-3.7c0.4-0.5,0.8-1.1,0.8-1.8c0-1.2-1.2-2.1-1.3-3.3
		c-0.1-1.4,0.9-2.8,1.8-3.7c1.6-1.7,1.1-3.9-0.2-5.6C167.6,71.8,167,70.1,167.7,68z M113.2,79.4h-5.5l-4.9-8.9
		c-1.4-2.5-2.9-5.4-4-8.1l-0.1,0c0.1,3,0.2,6.3,0.2,10v6.9h-4.8v-23h6.1l4.8,8.4c1.4,2.4,2.7,5.3,3.8,7.9h0.1
		c-0.3-3-0.4-6.1-0.4-9.6v-6.7h4.8V79.4z M132,79.4h-14.4v-23h5.2V75h9.1V79.4z M149.5,68.9c-1.8,1.7-4.4,2.4-7.5,2.4
		c-0.7,0-1.3,0-1.8-0.1v8.2h-5.1V56.7c1.6-0.3,3.9-0.5,7-0.5c3.2,0,5.5,0.6,7,1.8c1.5,1.2,2.5,3.1,2.5,5.3
		C151.6,65.7,150.8,67.6,149.5,68.9z"/>
	<path class="st0" d="M142.4,60.2c-1.1,0-1.8,0.1-2.1,0.2v6.8c0.4,0.1,1,0.1,1.7,0.1c2.8,0,4.5-1.4,4.5-3.8
		C146.4,61.4,145,60.2,142.4,60.2z"/>
</g>
</svg>
